# xmcd
# 
# Track frame offsets:
#     150
#     3503
#     26147
#     44055
#     62656
#     81656
#     95198
#     112873
#     135881
#     159048
#     178500
#     193357
#     210782
# 
# Disc length: 3202
# 
# Revision: 1
# Processed by: cddbd v1.5.2PL0 Copyright (c) Steve Scherf et al.
# Submitted via: fre:ac v1.0.27
# 
DISCID=aa0c800d
DTITLE=ゴールデンボンバー - Killer Tune Sika Neeyo
DYEAR=2018
DGENRE=Rock
TTITLE0=01-口上
TTITLE1=02-燃やして!マイゴッド
TTITLE2=03-やさしくしてね
TTITLE3=04-やんややんやNight ～踊ろよ日本～
TTITLE4=05-水商売をやめてくれないか
TTITLE5=06-#CDが売れないこんな世の中じゃ
TTITLE6=07-お前を-KOROSU-
TTITLE7=08-スイートマイルーム
TTITLE8=09-うれしいかなしい
TTITLE9=10-海山川川
TTITLE10=11-誕生日でも結婚式でも使える歌
TTITLE11=12-あの日君を傷つけたのは
TTITLE12=13-ドンマイ
EXTD=YEAY :2018
EXTT0=
EXTT1=
EXTT2=
EXTT3=
EXTT4=
EXTT5=
EXTT6=
EXTT7=
EXTT8=
EXTT9=
EXTT10=
EXTT11=
EXTT12=
PLAYORDER=
